name analog
datacolumns 19
datarows 42
range 0.2175 0.23800000000000002
endheader
time	ground_force_vx	ground_force_vy	ground_force_vz	ground_force_px	ground_force_py	ground_force_pz	l_ground_force_vx	l_ground_force_vy	l_ground_force_vz	l_ground_force_px	l_ground_force_py	l_ground_force_pz	ground_torque_x	ground_torque_y	ground_torque_z	l_ground_torque_x	l_ground_torque_y	l_ground_torque_z
0.2175	-0.0	-0.0	-0.0	17.405073165893555	17.462797164916992	-258.88983154296875	-18.23355865478516	-56.65025329589844	-363.46685791015625	-0.0	-0.0	-0.0	-0.0	-0.0	-0.0	97600.96875	32764.275390625	-11924.1943359375
0.218	-0.0	-0.0	-0.0	17.487409591674805	16.986860275268555	-258.5277099609375	-18.31988906860352	-56.87474060058594	-362.589599609375	-0.0	-0.0	-0.0	-0.0	-0.0	-0.0	97738.0234375	32902.58984375	-12086.279296875
0.2185	-0.0	-0.0	-0.0	18.24255752563477	17.208112716674805	-257.4367980957031	-18.583881378173828	-56.833984375	-361.9078063964844	-0.0	-0.0	-0.0	-0.0	-0.0	-0.0	97534.3984375	33270.9296875	-12279.5888671875
0.219	-0.0	-0.0	-0.0	18.33181953430176	17.160417556762695	-257.971923828125	-19.033344268798828	-56.82820129394531	-361.8841247558594	-0.0	-0.0	-0.0	-0.0	-0.0	-0.0	97600.40625	33504.578125	-12295.03125
0.2195	-0.0	-0.0	-0.0	18.735950469970703	16.89630889892578	-256.9418640136719	-18.897214889526367	-56.48262405395508	-360.8589477539063	-0.0	-0.0	-0.0	-0.0	-0.0	-0.0	97223.953125	33514.36328125	-12501.8193359375
0.22	-0.0	-0.0	-0.0	19.18341445922852	16.795562744140625	-258.3729858398437	-19.19844627380371	-56.44085311889648	-360.6736450195313	-0.0	-0.0	-0.0	-0.0	-0.0	-0.0	97222.6796875	33873.015625	-12576.9853515625
0.2205	-0.0	-0.0	-0.0	19.22265625	17.066265106201172	-257.63604736328125	-19.427661895751957	-56.56618881225586	-360.1651306152344	-0.0	-0.0	-0.0	-0.0	-0.0	-0.0	96967.3671875	34007.30078125	-12740.0029296875
0.221	-0.0	-0.0	-0.0	19.627649307250977	16.980009078979492	-257.29425048828125	-19.471309661865234	-56.43333435058594	-358.7616271972656	-0.0	-0.0	-0.0	-0.0	-0.0	-0.0	96723.9296875	34204.93359375	-12665.0625
0.2215	-0.0	-0.0	-0.0	20.02717399597168	16.79815673828125	-257.8260192871094	-19.82748413085937	-56.34923553466797	-358.5787353515625	-0.0	-0.0	-0.0	-0.0	-0.0	-0.0	96651.2734375	34333.91796875	-12887.984375
0.222	-0.0	-0.0	-0.0	20.0713005065918	17.200040817260742	-257.6595153808594	-20.226058959960938	-56.52587890625	-357.0142822265625	-0.0	-0.0	-0.0	-0.0	-0.0	-0.0	96364.2890625	34313.765625	-12887.53125
0.2225	-0.0	-0.0	-0.0	20.16337203979492	17.0698184967041	-258.7060852050781	-20.271881103515625	-56.48318099975586	-356.3111572265625	-0.0	-0.0	-0.0	-0.0	-0.0	-0.0	96427.5078125	34686.015625	-13051.6044921875
0.223	-0.0	-0.0	-0.0	20.695310592651367	17.37966537475586	-258.88092041015625	-20.580059051513672	-56.30381774902344	-356.12799072265625	-0.0	-0.0	-0.0	-0.0	-0.0	-0.0	96154.6953125	34671.31640625	-13125.7529296875
0.2235	-0.0	-0.0	-0.0	21.053022384643555	16.97835350036621	-258.8782958984375	-20.848512649536133	-56.26239013671875	-353.69061279296875	-0.0	-0.0	-0.0	-0.0	-0.0	-0.0	95885.3828125	35062.44140625	-13288.9443359375
0.224	-0.0	-0.0	-0.0	21.499732971191406	16.889965057373047	-259.4077453613281	-20.847034454345703	-56.08427429199219	-354.2154541015625	-0.0	-0.0	-0.0	-0.0	-0.0	-0.0	95678.34375	35003.62109375	-13437.02734375
0.2245	-0.0	-0.0	-0.0	21.23132705688477	17.379655838012695	-261.70635986328125	-21.290119171142575	-56.04034423828125	-352.9886169433594	-0.0	-0.0	-0.0	-0.0	-0.0	-0.0	95212.8828125	34979.1875	-13467.3427734375
0.225	-0.0	-0.0	-0.0	21.54370880126953	17.335233688354492	-262.41168212890625	-21.37996864318848	-56.08393859863281	-351.4204406738281	-0.0	-0.0	-0.0	-0.0	-0.0	-0.0	94850.6640625	35177.09375	-13675.1328125
0.2255	-0.0	-0.0	-0.0	21.544038772583008	17.157644271850586	-263.4715576171875	-21.37895965576172	-55.68623352050781	-349.6763610839844	-0.0	-0.0	-0.0	-0.0	-0.0	-0.0	94563.859375	35380.86328125	-13630.5107421875
0.226	-0.0	-0.0	-0.0	21.72283172607422	17.023988723754883	-266.1210632324219	-21.64536666870117	-55.86349868774414	-347.5810852050781	-0.0	-0.0	-0.0	-0.0	-0.0	-0.0	94241.8828125	35598.0625	-13764.0556640625
0.2265	-0.0	-0.0	-0.0	21.36526298522949	17.24645233154297	-266.4731750488281	-21.867055892944336	-55.99594879150391	-346.8823547363281	-0.0	-0.0	-0.0	-0.0	-0.0	-0.0	93951.625	35498.19921875	-13912.4453125
0.227	-0.0	-0.0	-0.0	21.543533325195312	17.067989349365234	-268.4154968261719	-21.956037521362305	-55.59909057617188	-346.3602600097656	-0.0	-0.0	-0.0	-0.0	-0.0	-0.0	93632.3671875	35551.5625	-13912.349609375
0.2275	-0.0	-0.0	-0.0	22.213417053222656	17.024333953857422	-270.5307922363281	-22.266746520996094	-55.33472442626953	-344.089599609375	-0.0	-0.0	-0.0	-0.0	-0.0	-0.0	93120.453125	35882.65234375	-14031.205078125
0.228	-0.0	-0.0	-0.0	22.39183807373047	16.88932228088379	-272.4771728515625	-22.222810745239254	-55.68707656860352	-343.22003173828125	-0.0	-0.0	-0.0	-0.0	-0.0	-0.0	92909.7578125	35797.7109375	-14090.1982421875
0.2285	-0.0	-0.0	-0.0	22.747982025146484	17.202865600585938	-274.9464416503906	-22.399778366088867	-55.37770080566406	-340.94775390625	-0.0	-0.0	-0.0	-0.0	-0.0	-0.0	92626.7578125	35815.8359375	-14194.474609375
0.229	-0.0	-0.0	-0.0	23.10135269165039	16.79983139038086	-276.0216979980469	-22.97534942626953	-55.42371368408203	-339.3695068359375	-0.0	-0.0	-0.0	-0.0	-0.0	-0.0	92130.203125	36045.49609375	-14270.1533203125
0.2295	-0.0	-0.0	-0.0	23.106521606445312	17.111038208007812	-278.6629333496094	-22.7099609375	-55.420501708984375	-339.1954345703125	-0.0	-0.0	-0.0	-0.0	-0.0	-0.0	91770.09375	36116.99609375	-14416.6796875
0.23	-0.0	-0.0	-0.0	23.687047958374023	16.753202438354492	-280.95245361328125	-23.37376976013184	-55.59799957275391	-337.45703125	-0.0	-0.0	-0.0	-0.0	-0.0	-0.0	91514.7578125	36195.98828125	-14492.4736328125
0.2305	-0.0	-0.0	-0.0	23.68602561950684	16.981246948242188	-281.65850830078125	-23.42318725585937	-55.60026550292969	-336.7497863769531	-0.0	-0.0	-0.0	-0.0	-0.0	-0.0	91217.9921875	36456.4609375	-14625.48828125
0.231	-0.0	-0.0	-0.0	23.59688377380371	17.02109718322754	-284.4836730957031	-23.950597763061523	-55.37770080566406	-335.01873779296875	-0.0	-0.0	-0.0	-0.0	-0.0	-0.0	90872.6640625	36429.40234375	-14728.97265625
0.2315	-0.0	-0.0	-0.0	23.77686882019043	16.889455795288086	-285.7225952148437	-24.30675506591797	-55.37628555297852	-333.6116027832031	-0.0	-0.0	-0.0	-0.0	-0.0	-0.0	90305.71875	36669.8984375	-14804.0439453125
0.232	-0.0	-0.0	-0.0	24.22317123413086	17.378751754760742	-286.7953796386719	-24.355070114135746	-55.07093811035156	-331.0019836425781	-0.0	-0.0	-0.0	-0.0	-0.0	-0.0	89764.25	36634.9921875	-14819.6279296875
0.2325	-0.0	-0.0	-0.0	23.813854217529297	17.380428314208984	-289.06011962890625	-24.753686904907227	-55.07109451293945	-328.9008178710937	-0.0	-0.0	-0.0	-0.0	-0.0	-0.0	89465.140625	36611.20703125	-15056.7119140625
0.233	-0.0	-0.0	-0.0	24.04127311706543	17.291297912597656	-290.4791259765625	-25.01826477050781	-54.76307678222656	-326.11480712890625	-0.0	-0.0	-0.0	-0.0	-0.0	-0.0	88818.328125	36773.75	-15087.1181640625
0.2335	-0.0	-0.0	-0.0	24.445764541625977	17.46539306640625	-292.942138671875	-25.024396896362305	-54.4964599609375	-323.14373779296875	-0.0	-0.0	-0.0	-0.0	-0.0	-0.0	88139.828125	36744.2734375	-15204.4638671875
0.234	-0.0	-0.0	-0.0	24.441490173339844	17.82170295715332	-293.26824951171875	-25.68281936645508	-54.49448394775391	-322.283447265625	-0.0	-0.0	-0.0	-0.0	-0.0	-0.0	87541.75	37054.0	-15280.125
0.23450000000000001	-0.0	-0.0	-0.0	24.49653434753418	17.686498641967773	-295.3930358886719	-25.814838409423828	-54.53751754760742	-319.3125	-0.0	-0.0	-0.0	-0.0	-0.0	-0.0	87050.7265625	36901.15234375	-15394.408203125
0.23500000000000001	-0.0	-0.0	-0.0	24.48953056335449	17.818613052368164	-295.7635498046875	-25.81723022460937	-54.01228713989258	-317.888427734375	-0.0	-0.0	-0.0	-0.0	-0.0	-0.0	86292.65625	36815.70703125	-15412.4853515625
0.23550000000000001	-0.0	-0.0	-0.0	24.497371673583984	18.182601928710938	-300.20294189453125	-26.172178268432617	-54.26994705200195	-314.0668029785156	-0.0	-0.0	-0.0	-0.0	-0.0	-0.0	85911.671875	36911.5234375	-15517.8623046875
0.23600000000000002	-0.0	-0.0	-0.0	23.957164764404297	18.1394157409668	-301.4117431640625	-26.70727157592773	-54.05552673339844	-311.78192138671875	-0.0	-0.0	-0.0	-0.0	-0.0	-0.0	85336.1171875	36967.84765625	-15725.001953125
0.23650000000000002	-0.0	-0.0	-0.0	24.12420082092285	18.978986740112305	-305.1474609375	-26.973670959472656	-53.92456817626953	-309.146240234375	-0.0	-0.0	-0.0	-0.0	-0.0	-0.0	84573.015625	36894.3203125	-15739.5224609375
0.23700000000000002	-0.0	-0.0	-0.0	23.15763282775879	19.070905685424805	-309.1793212890625	-27.325822830200195	-53.30069351196289	-304.9896545410156	-0.0	-0.0	-0.0	-0.0	-0.0	-0.0	83679.6875	36727.4453125	-15813.2724609375
0.23750000000000002	-0.0	-0.0	-0.0	23.240922927856445	19.11688804626465	-312.5516967773437	-27.63801002502441	-53.52904891967773	-302.89508056640625	-0.0	-0.0	-0.0	-0.0	-0.0	-0.0	82987.796875	36830.01171875	-15858.5048828125
0.23800000000000002	-0.0	-0.0	-0.0	22.93364906311035	19.780406951904297	-317.3386535644531	-27.536771774291992	-52.76747512817383	-298.3562927246094	-0.0	-0.0	-0.0	-0.0	-0.0	-0.0	81790.625	36541.66015625	-15885.765625
